inDegrees=no
num_controls=7
num_derivatives=13
num_iterations=99
num_multipliers=7
num_parameters=0
num_slacks=7
num_states=26
objective=0.333868
objective_accelerations=0.037423
objective_balance=0.001368
objective_effort=0.027340
objective_height=0.266266
objective_ligament=0.001471
solver_duration=1037.664563
status=Solve_Succeeded
success=true
DataType=double
version=3
OpenSimVersion=4.5
endheader
time	/jointset/ground_pelvis/pelvis_tilt/value	/jointset/ground_pelvis/pelvis_tx/value	/jointset/ground_pelvis/pelvis_ty/value	/jointset/hip_r/hip_flexion_r/value	/jointset/hip_r/hip_adduction_r/value	/jointset/hip_r/hip_rotation_r/value	/jointset/back/lumbar_extension/value	/jointset/patellofemoral_r/patellar_flexion_r/value	/jointset/knee_r/knee_flexion_r/value	/jointset/knee_r/knee_adduction_r/value	/jointset/knee_r/knee_rotation_r/value	/jointset/ankle_r/ankle_angle_r/value	/jointset/subtalar_r/subtalar_angle_r/value	/jointset/ground_pelvis/pelvis_tilt/speed	/jointset/ground_pelvis/pelvis_tx/speed	/jointset/ground_pelvis/pelvis_ty/speed	/jointset/hip_r/hip_flexion_r/speed	/jointset/hip_r/hip_adduction_r/speed	/jointset/hip_r/hip_rotation_r/speed	/jointset/back/lumbar_extension/speed	/jointset/patellofemoral_r/patellar_flexion_r/speed	/jointset/knee_r/knee_flexion_r/speed	/jointset/knee_r/knee_adduction_r/speed	/jointset/knee_r/knee_rotation_r/speed	/jointset/ankle_r/ankle_angle_r/speed	/jointset/subtalar_r/subtalar_angle_r/speed	/forceset/tau_hip_flexion_r	/forceset/tau_hip_adduction_r	/forceset/tau_hip_rotation_r	/forceset/tau_knee_flexion_r	/forceset/tau_ankle_angle_r	/forceset/tau_subtalar_angle_r	/forceset/tau_lumbar_extension	lambda_cid13_p0	lambda_cid14_p0	lambda_cid14_p1	lambda_cid14_p2	lambda_cid14_p3	lambda_cid14_p4	lambda_cid14_p5	/jointset/ground_pelvis/pelvis_tilt/accel	/jointset/ground_pelvis/pelvis_tx/accel	/jointset/ground_pelvis/pelvis_ty/accel	/jointset/hip_r/hip_flexion_r/accel	/jointset/hip_r/hip_adduction_r/accel	/jointset/hip_r/hip_rotation_r/accel	/jointset/back/lumbar_extension/accel	/jointset/patellofemoral_r/patellar_flexion_r/accel	/jointset/knee_r/knee_flexion_r/accel	/jointset/knee_r/knee_adduction_r/accel	/jointset/knee_r/knee_rotation_r/accel	/jointset/ankle_r/ankle_angle_r/accel	/jointset/subtalar_r/subtalar_angle_r/accel	gamma_cid13_p0	gamma_cid14_p0	gamma_cid14_p1	gamma_cid14_p2	gamma_cid14_p3	gamma_cid14_p4	gamma_cid14_p5
1.5	-0.1101863985009875	0.03745017687320882	0.8148333589293837	0.8348034473630017	-0.2268039973147843	-0.1208418515241119	-0.6257309746239313	0.9422212628731879	0.9422212628728841	-0.03620596987281654	0.1745015605329304	0.3078076774240018	0.1378335888983099	0.5191823804641458	0.2283669962738167	0.516935451068037	-2.086728049264585	0.0002173115474377718	-0.1771456991097914	0.8034317786473064	-1.971270214202509	-1.971270214202508	0.4942992973407655	-3.530279730627978e-05	-0.5224558659233608	-0.207827209226937	-0.1728799032590353	0.01483524992922661	0.01780584476203832	-0.2856652800114474	-0.007657153064290809	-0.004241658681639534	0.2195871211454568	-9.025136727571248	-44.47946951263491	-8.704940394215614	0.752886953900365	-1.458428037543982	-628.000036235768	55.93615347253628	0.1646576021017328	0.5614621544467917	-0.5388040115285448	-1.008699135075499	-0.2615103569392053	-0.6828432706891854	1.801343790868155	-1.354760498838425	-1.354760498838426	0.4486269662994756	-0.02412140071399944	-0.6855627699170586	-0.4548041037073486	1.725011075541466e-07	1.459322299421972e-07	-1.002704581706361e-06	1.549792799391762e-06	1.141696494549094e-08	3.334938529082643e-07	-7.733552546260257e-07
1.51	-0.1049867150749178	0.03976167598305244	0.819974742728788	0.8138877449136308	-0.2268158795811893	-0.1226469082791033	-0.617608116324558	0.9224433208660207	0.9224433208658388	-0.03123860361649684	0.1745010909675312	0.3025493406945505	0.1357314358417271	0.520675030221085	0.2339040546511982	0.5112319711810538	-2.096139051545976	-0.002603061105554331	-0.1838793889605731	0.8210310794114587	-1.98405063217318	-1.984050632173184	0.4991394467556688	-5.687503172673182e-05	-0.5291290547103074	-0.2125646088943945	-0.165313504343311	0.01312426294774754	0.01795110000004146	-0.2820000962564864	-0.005745340638210991	-0.005033190936962969	0.2127295351844269	-10.06202575171853	-43.58729946148397	-8.743787236189142	0.589225669142729	-1.535422167292289	-623.032670643324	55.77245935995112	0.129689119117201	0.5455131180391021	-0.6024541960994066	-0.8662751341029515	-0.2935358348535702	-0.6704213740705043	1.722902946760308	-1.19958164371521	-1.199581643715987	0.4964187981655997	0.009350409274693612	-0.6457986566668137	-0.4773541588811935	1.657557987947457e-07	1.42203786601529e-07	-9.45521158802058e-07	1.52211701830391e-06	7.495626267970579e-09	3.325935134575574e-07	-7.625646069195843e-07
1.52	-0.09977448105995509	0.04212768276440086	0.8250558248855592	0.7928861375695586	-0.2268562125971992	-0.1245196598389622	-0.609312529072029	0.9025455948396394	0.9025455948395813	-0.02622389389221427	0.1745005107886055	0.2972267517325131	0.1335830795363465	0.5216924982431164	0.2392685305747748	0.5048751225414229	-2.10390902820465	-0.005472838373521054	-0.1906846600832696	0.837977569278477	-1.995227018045204	-1.995227018045213	0.503767990933766	-5.742550291597379e-05	-0.535306312440588	-0.2170678589865019	-0.1577471054275846	0.011413275966268	0.01809635523806107	-0.2783349125015238	-0.003833528212131311	-0.00582472319228748	0.2058719492233987	-11.10270403067123	-42.69519725277124	-8.780409260056208	0.4226544876063518	-1.625137166257244	-618.0659603657077	55.67314684380688	0.06962125512011907	0.5269456636858632	-0.669477762058112	-0.6804940105321005	-0.2713912799341427	-0.6971595250721733	1.670781611441354	-1.033954079109134	-1.033954079109201	0.4063059189382621	-0.01991704806773654	-0.5863765585838504	-0.4079741886373112	1.633651166331554e-07	1.341720035619251e-07	-1.00897938298791e-06	1.419381370091915e-06	1.944355188513453e-08	3.290230724010504e-07	-8.144425807969939e-07
1.53	-0.09455446493839455	0.04454638722261075	0.8300701259629159	0.771815139734812	-0.226925347031987	-0.1264614287737697	-0.6008508804082449	0.8825441753393745	0.8825441753393842	-0.02116463198381976	0.1745002377946709	0.2918449293992939	0.1313911108383695	0.5222302140943555	0.2444346413880307	0.4978812644529274	-2.110003707088364	-0.008356080990965045	-0.1976700166374279	0.8542273100887466	-2.004773328111886	-2.004773328111933	0.5080473205971457	-5.050098731467162e-06	-0.5409705573603724	-0.2212774969050734	-0.1502138085052981	0.009535896835995131	0.01825910965442598	-0.2747195339070263	-0.002088452188503894	-0.006650967826429454	0.1990094374940129	-12.14349518784872	-41.87629025789187	-8.844924870903561	0.2605329933817426	-1.609510600700936	-613.3090578493096	55.5774709318297	0.03377891168638735	0.5057985734988344	-0.7298502667052443	-0.530916607943554	-0.2970206191238867	-0.6991056120293854	1.583342307333557	-0.8724697457794516	-0.8724697457850661	0.4330203250361885	0.01681799998850285	-0.5432610180678007	-0.4202712026706963	1.656012252317387e-07	1.215679220922021e-07	-1.200619357207048e-06	1.236894613060518e-06	4.825257081540037e-08	3.226156483883808e-07	-9.329059651072445e-07
1.54	-0.0893314852260113	0.04701562374562378	0.8350113863724956	0.7506918027550965	-0.2270233598662444	-0.1284730276524065	-0.5922304799380556	0.8624557926833782	0.8624557926834525	-0.01606372201178877	0.1745002891878416	0.2864091021049983	0.1291584832393662	0.5222852164080219	0.2493749435354038	0.4902669889860346	-2.114376857198178	-0.01124851826738469	-0.2046506488492552	0.869727930559572	-2.012619649191834	-2.012619649191918	0.5120976036604592	7.451918532286615e-06	-0.5461073046558392	-0.2251996391917901	-0.1426805115830093	0.007658517705724721	0.01842186407077073	-0.2711041553125301	-0.0003433761648756041	-0.00747721246056697	0.1921469257646286	-13.18100338410476	-41.05809663687636	-8.908368408984394	0.09687300563711701	-1.60219699784813	-608.5605294100659	55.53848037625513	-0.02692145239448624	0.4817839305093645	-0.7935612377375905	-0.3361882557522293	-0.2732302117292842	-0.6962146566059761	1.520957543552485	-0.6939562817621506	-0.6939562817621481	0.3604965989249744	-0.02789172545186621	-0.4808770337203166	-0.3504750622663378	1.702091987004919e-07	1.107222212499702e-07	-1.406969930182347e-06	1.055193683831832e-06	7.801047676755447e-08	3.150903054124982e-07	-1.047471101296546e-06
1.55	-0.08411038676096089	0.04953304238054434	0.8398734619943685	0.7295334790389716	-0.227150234127862	-0.1305550216777565	-0.5834590500973806	0.8422975386925921	0.8422975386925604	-0.01092406132330208	0.1745005933265672	0.2809245983610068	0.126888253309911	0.521851759789948	0.2540612040335798	0.4820501395288623	-2.116982457874002	-0.01412438008903557	-0.2117309424378519	0.8844088033102756	-2.018726452164394	-2.018726452164496	0.5158010606300747	3.830161142421334e-05	-0.5507007869178367	-0.2287942544655663	-0.1350921283492788	0.005782256626029118	0.01858319962801326	-0.2676591550222849	0.001452814451605363	-0.008476526888407512	0.185214231822709	-14.21080092521757	-40.25401089428052	-9.066066295266291	-0.03277594085542619	-1.524680045124903	-604.0266781577899	55.36669088814887	-0.06395761433217481	0.4549353975657155	-0.8503859025313021	-0.1769208566195111	-0.2944900491055907	-0.7111186361120897	1.419267001010607	-0.5233741104993639	-0.5233741105021595	0.3700170680705848	0.01641849336447439	-0.4346199895112642	-0.3563258556846151	1.775499729979189e-07	1.019024806959345e-07	-1.630269671289742e-06	8.743981648975736e-07	1.088616655927537e-07	3.062769253703049e-07	-1.157544777694318e-06
